 <svg
      xmlns="http://www.w3.org/2000/svg"
      width="24"
      height="24"
      fillRule="evenodd"
      clipRule="evenodd"
      fill="#F0F0F0"
    >
      <path d="M6 24H4a1 1 0 01-1-1v-1a2 2 0 01-2-2v-8a1 1 0 01-1-1V8a1 1 0 011-1V3a3 3 0 013-3h16a3 3 0 013 3v4a1 1 0 011 1v3a1 1 0 01-1 1v8a2 2 0 01-2 2v1a1 1 0 01-1 1h-2a1 1 0 01-1-1v-1H7v1a1 1 0 01-1 1zm-1.5-7a1.5 1.5 0 11-.001 3.001A1.5 1.5 0 014.5 17zm15 0a1.5 1.5 0 11-.001 3.001A1.5 1.5 0 0119.5 17zm-5 1h-5a.5.5 0 000 1h5a.5.5 0 000-1zM21 5.5a.5.5 0 00-.5-.5h-17a.5.5 0 00-.5.5V14s3.098 1 9 1 9-1 9-1V5.5zM16 2H8v1h8V2z"></path>
    </svg>