<svg
      xmlns="http://www.w3.org/2000/svg"
      width="24"
      height="24"
      viewBox="0 0 24 24"
      fill="#F0F0F0"
    >
      <path d="M8.213 16.984c.97-1.028 2.308-1.664 3.787-1.664s2.817.636 3.787 1.664L12 21l-3.787-4.016zM6.466 15.13c1.417-1.502 3.373-2.431 5.534-2.431s4.118.929 5.534 2.431l2.33-2.472C17.852 10.524 15.071 9.204 12 9.204s-5.852 1.32-7.864 3.455l2.33 2.471zm-4.078-4.325C4.848 8.196 8.247 6.583 12 6.583s7.152 1.613 9.612 4.222L24 8.272C20.929 5.015 16.687 3 12 3S3.071 5.015 0 8.272l2.388 2.533z"></path>
    </svg>